HIERARCHY
ROOT Hips
{
	OFFSET 0.00000 0.00000 0.00000
	CHANNELS 6 Xposition Yposition Zposition Zrotation Yrotation Xrotation 
	JOINT LHipJoint
	{
		OFFSET 0 0 0
		CHANNELS 3 Zrotation Yrotation Xrotation
		JOINT LeftUpLeg
		{
			OFFSET 2.10660 -1.59283 1.11709
			CHANNELS 3 Zrotation Yrotation Xrotation
			JOINT LeftLeg
			{
				OFFSET 2.03633 -5.59477 0.00000
				CHANNELS 3 Zrotation Yrotation Xrotation
				JOINT LeftFoot
				{
					OFFSET 2.74354 -7.53782 0.00000
					CHANNELS 3 Zrotation Yrotation Xrotation
					JOINT LeftToeBase
					{
						OFFSET 0.09177 -0.25215 1.99109
						CHANNELS 3 Zrotation Yrotation Xrotation
						End Site
						{
							OFFSET 0.00000 -0.00000 1.01710
						}
					}
				}
			}
		}
	}
	JOINT RHipJoint
	{
		OFFSET 0 0 0
		CHANNELS 3 Zrotation Yrotation Xrotation
		JOINT RightUpLeg
		{
			OFFSET -1.86456 -1.59283 1.11709
			CHANNELS 3 Zrotation Yrotation Xrotation
			JOINT RightLeg
			{
				OFFSET -2.09328 -5.75123 0.00000
				CHANNELS 3 Zrotation Yrotation Xrotation
				JOINT RightFoot
				{
					OFFSET -2.65375 -7.29113 0.00000
					CHANNELS 3 Zrotation Yrotation Xrotation
					JOINT RightToeBase
					{
						OFFSET -0.08891 -0.24428 1.95541
						CHANNELS 3 Zrotation Yrotation Xrotation
						End Site
						{
							OFFSET -0.00000 -0.00000 0.99928
						}
					}
				}
			}
		}
	}
	JOINT LowerBack
	{
		OFFSET 0 0 0
		CHANNELS 3 Zrotation Yrotation Xrotation
		JOINT Spine
		{
			OFFSET -0.11002 1.82513 -0.30878
			CHANNELS 3 Zrotation Yrotation Xrotation
			JOINT Spine1
			{
				OFFSET 0.02136 1.89008 0.15052
				CHANNELS 3 Zrotation Yrotation Xrotation
				JOINT Neck
				{
					OFFSET 0 0 0
					CHANNELS 3 Zrotation Yrotation Xrotation
					JOINT Neck1
					{
						OFFSET -0.02611 1.82648 0.12298
						CHANNELS 3 Zrotation Yrotation Xrotation
						JOINT Head
						{
							OFFSET 0.06033 1.80858 -0.32888
							CHANNELS 3 Zrotation Yrotation Xrotation
							End Site
							{
								OFFSET 0.01403 1.85203 -0.12607
							}
						}
					}
				}
				JOINT LeftShoulder
				{
					OFFSET 0 0 0
					CHANNELS 3 Zrotation Yrotation Xrotation
					JOINT LeftArm
					{
						OFFSET 3.64598 0.79256 -0.42249
						CHANNELS 3 Zrotation Yrotation Xrotation
						JOINT LeftForeArm
						{
							OFFSET 4.92383 -0.00000 0.00000
							CHANNELS 3 Zrotation Yrotation Xrotation
							JOINT LeftHand
							{
								OFFSET 2.65826 -0.00000 0.00000
								CHANNELS 3 Zrotation Yrotation Xrotation
								JOINT LeftFingerBase
								{
									OFFSET 0 0 0
									CHANNELS 3 Zrotation Yrotation Xrotation
									JOINT LeftHandIndex1
									{
										OFFSET 0.73343 -0.00000 0.00000
										CHANNELS 3 Zrotation Yrotation Xrotation
										End Site
										{
											OFFSET 0.59131 -0.00000 0.00000
										}
									}
								}
								JOINT LThumb
								{
									OFFSET 0 0 0
									CHANNELS 3 Zrotation Yrotation Xrotation
									End Site
									{
										OFFSET 0.60034 -0.00000 0.60034
									}
								}
							}
						}
					}
				}
				JOINT RightShoulder
				{
					OFFSET 0 0 0
					CHANNELS 3 Zrotation Yrotation Xrotation
					JOINT RightArm
					{
						OFFSET -3.83899 0.50520 -0.46242
						CHANNELS 3 Zrotation Yrotation Xrotation
						JOINT RightForeArm
						{
							OFFSET -4.63604 -0.00000 0.00000
							CHANNELS 3 Zrotation Yrotation Xrotation
							JOINT RightHand
							{
								OFFSET -2.86243 -0.00000 -0.00000
								CHANNELS 3 Zrotation Yrotation Xrotation
								JOINT RightFingerBase
								{
									OFFSET 0 0 0
									CHANNELS 3 Zrotation Yrotation Xrotation
									JOINT RightHandIndex1
									{
										OFFSET -0.75891 -0.00000 0.00000
										CHANNELS 3 Zrotation Yrotation Xrotation
										End Site
										{
											OFFSET -0.61185 -0.00000 0.00000
										}
									}
								}
								JOINT RThumb
								{
									OFFSET 0 0 0
									CHANNELS 3 Zrotation Yrotation Xrotation
									End Site
									{
										OFFSET -0.62119 -0.00000 0.62119
									}
								}
							}
						}
					}
				}
			}
		}
	}
}
MOTION
Frames: 14
Frame Time: .0083333
-1.4385 16.4063 -26.0539 0 0 0 0 0 0 -21 0 0 0 0 0 0 0 0 0 0 0 0 0 0 21 0 0 0 0 0 0 0 0 0 0 0 0 0 0 0 0 0 0 0 0 0 0 -16 0 0 21 0 0 11 0 0 0 -8 0 0 0 0 0 0 0 0 0 0 0 0 0 0 0 0 0 0 0 0 8 0 0 0 0 0 0 0 0 0 0 0 0 0 0 0 0 0
-1.4385 16.4063 -26.0539 1.5803 5.9987 2.3607 0.0000 0.0000 0.0000 -16.6099 -5.4681 -20.8386 13.5238 18.9632 70.7449 0.2032 4.8192 8.1929 0.2847 3.4318 9.4833 0.0000 0.0000 0.0000 23.2862 18.1149 -8.8592 -2.3761 -9.6091 27.7198 -0.5424 -6.6209 -17.8874 -0.8011 -5.7126 15.9529 -8.0353 -0.3445 13.6691 1.9802 -1.7634 -5.0731 7.2187 -0.0343 -13.1095 -4.5920 -6.2958 -6.6330 4.8319 -8.8957 17.3738 1.5832 -4.2134 6.8091 0.0000 0.0000 0.0000 -89.7682 7.5953 17.8322 14.6208 -23.6152 -3.0724 -0.0000 0.0000 -0.5464 5.4567 17.7370 1.6669 -7.1250 0.0000 -0.0000 -21.2436 46.6245 -0.8910 0.0000 0.0000 0.0000 85.0781 -10.5250 24.7905 -13.4498 21.9427 -2.6190 0.0000 0.0000 8.2031 -7.9192 17.5532 -2.4023 7.1250 -0.0000 -0.0000 13.1813 -12.6069 10.2684
-1.4195 16.4209 -25.9393 1.5848 5.0549 2.1494 0.0000 0.0000 0.0000 -16.7960 -4.6938 -21.4559 13.5447 18.9701 70.8091 0.1430 4.2886 6.9202 0.3182 3.6260 10.0267 0.0000 0.0000 0.0000 23.4382 17.9281 -7.8427 -2.2615 -9.3908 27.0255 -0.5454 -6.0415 -17.4569 -0.7670 -5.5924 15.6062 -7.7920 0.0539 13.3351 1.8831 -1.1486 -4.6711 6.7975 0.1841 -12.5533 -4.4880 -6.4169 -7.8880 4.7211 -9.0383 17.8624 1.4702 -4.2529 7.1855 -0.0000 0.0000 0.0000 -89.7689 6.9551 17.8767 14.6709 -23.6857 -3.0925 -0.0000 0.0000 -0.4746 5.4566 17.1773 1.6160 -7.1250 0.0000 -0.0000 -21.0161 46.1022 -0.5979 -0.0000 0.0000 0.0000 85.0026 -9.6275 24.7861 -13.4463 21.9376 -2.6177 0.0000 0.0000 8.2043 -8.4067 17.8106 -2.5882 7.1250 -0.0000 -0.0000 12.8588 -12.3191 10.0825
-1.4186 16.4256 -25.8443 1.5224 4.9129 2.1055 0.0000 0.0000 0.0000 -16.7201 -4.7212 -22.3315 13.5386 18.9681 70.7903 0.1044 3.8567 5.9525 0.3345 3.7166 10.2807 0.0000 0.0000 0.0000 23.6841 17.6587 -7.0089 -2.1379 -9.1475 26.2579 -0.5512 -5.9223 -17.4316 -0.7741 -5.6179 15.6797 -7.6828 0.1268 13.0972 1.9118 -1.0030 -4.5406 6.7213 0.2267 -12.2837 -4.6789 -6.4439 -8.1185 4.8190 -9.0643 18.0014 1.5202 -4.2630 7.2866 0.0000 -0.0000 0.0000 -89.8720 6.6304 17.6275 14.6374 -23.6386 -3.0791 -0.0000 0.0000 -0.3573 5.4709 16.8450 1.5898 -7.1250 0.0000 -0.0000 -20.8715 45.7933 -0.4273 0.0000 -0.0000 0.0000 84.7626 -9.1962 25.0610 -13.5188 22.0426 -2.6448 0.0000 0.0000 7.9703 -8.4189 17.8498 -2.5975 7.1250 -0.0000 -0.0000 12.8502 -12.2797 10.0863
-1.3866 16.4398 -25.6889 1.5298 3.9264 1.5712 0.0000 0.0000 0.0000 -17.0795 -3.8958 -22.0761 13.4060 18.9239 70.3819 0.0468 3.4512 4.2383 0.3281 3.6817 10.1828 0.0000 0.0000 0.0000 23.9676 17.5025 -5.3952 -2.0323 -8.9330 25.5860 -0.5629 -5.5348 -17.2698 -0.7047 -5.3657 14.9545 -7.2705 0.4947 12.3578 1.7328 -0.3822 -4.0807 6.1135 0.4228 -11.4156 -4.4706 -6.6172 -8.5257 4.6757 -9.2979 18.0844 1.4028 -4.3637 7.3810 0.0000 -0.0000 0.0000 -89.7620 6.1037 17.7838 14.5881 -23.5692 -3.0593 -0.0000 0.0000 -0.6969 5.3656 17.5315 1.6206 -7.1250 0.0000 -0.0000 -21.2405 46.4212 -0.7797 0.0000 -0.0000 0.0000 84.7976 -8.6782 24.7822 -13.4429 21.9328 -2.6164 0.0000 0.0000 8.1129 -8.5949 18.2028 -2.7032 7.1250 -0.0000 -0.0000 12.7302 -11.9197 10.0847
-1.3821 16.4443 -25.5816 1.5198 3.7170 1.3964 0.0000 0.0000 0.0000 -17.1649 -3.9773 -22.5831 13.3407 18.9017 70.1804 0.0125 3.1890 2.8350 0.3457 3.7779 10.4528 0.0000 0.0000 0.0000 24.1907 17.3195 -4.4618 -1.9620 -8.7865 25.1298 -0.6022 -5.2978 -17.5432 -0.7709 -5.6065 15.6468 -7.0712 0.7017 12.2637 1.5906 -0.0743 -3.9443 5.7698 0.5368 -11.2508 -4.1489 -6.7856 -9.4861 4.5563 -9.5567 18.5759 1.2467 -4.4493 7.7040 0.0000 0.0000 0.0000 -89.5871 5.8906 18.1062 14.6101 -23.6002 -3.0682 -0.0000 0.0000 -1.0368 5.3919 17.9610 1.6671 -7.1250 0.0000 -0.0000 -21.3945 46.8249 -1.0085 0.0000 0.0000 0.0000 85.0371 -8.1450 24.0941 -13.2597 21.6666 -2.5484 0.0000 0.0000 8.6470 -8.6210 18.5881 -2.7668 7.1250 -0.0000 -0.0000 12.7081 -11.5390 10.1688
-1.3867 16.4461 -25.5122 1.5439 3.2237 1.5115 0.0000 0.0000 0.0000 -17.1721 -3.9109 -23.7041 13.2736 18.8787 69.9732 -0.0068 2.7466 1.4747 0.3548 3.8267 10.5896 0.0000 0.0000 0.0000 24.1866 17.2178 -4.1837 -1.9060 -8.6675 24.7605 -0.6079 -4.9655 -17.3717 -0.7467 -5.5196 15.3966 -7.0410 0.9931 12.2558 1.4683 0.3075 -4.0469 5.5344 0.7209 -11.4213 -4.3944 -6.8984 -8.4710 4.9603 -9.7601 18.1653 1.4365 -4.5542 7.4317 -0.0000 -0.0000 0.0000 -89.4348 6.2383 18.4323 14.8441 -23.9285 -3.1624 -0.0000 0.0000 -1.2436 5.3923 17.8003 1.6529 -7.1250 0.0000 -0.0000 -21.3272 46.6751 -0.9227 -0.0000 -0.0000 0.0000 85.2576 -7.7085 23.6202 -13.1377 21.4886 -2.5035 0.0000 0.0000 8.9091 -8.4594 18.1970 -2.6592 7.1250 -0.0000 -0.0000 12.8180 -11.9357 10.1536
-1.3945 16.4414 -25.4477 1.5110 2.6412 1.7715 0.0000 0.0000 0.0000 -17.0635 -3.8501 -25.0342 13.2207 18.8604 69.8094 -0.0119 2.1161 0.1342 0.4448 4.2793 11.8638 0.0000 0.0000 0.0000 24.1913 17.2783 -4.2319 -1.8871 -8.6268 24.6346 -0.6097 -4.5866 -17.1318 -0.6935 -5.3237 14.8340 -6.9667 1.2395 12.0229 1.3493 0.6550 -4.0895 5.2820 0.8748 -11.3796 -4.3184 -6.9760 -8.0757 5.0620 -9.8917 17.8556 1.4621 -4.6166 7.2687 -0.0000 0.0000 0.0000 -89.1770 6.1529 18.6202 15.0285 -24.1858 -3.2376 -0.0000 0.0000 -1.4662 5.0356 18.1762 1.5745 -7.1250 0.0000 -0.0000 -21.8040 46.9785 -1.1160 -0.0000 0.0000 0.0000 85.4250 -7.2229 23.4501 -13.2215 21.6109 -2.5343 0.0000 0.0000 8.7221 -8.0203 17.4684 -2.4219 7.1250 -0.0000 -0.0000 13.1173 -12.6829 10.1942
-1.3969 16.4227 -25.3462 1.7380 4.7153 1.1237 0.0000 0.0000 0.0000 -17.3622 -6.0903 -24.7245 13.1243 18.8266 69.5112 -0.0073 1.5933 -1.1129 0.4918 4.4963 12.4774 0.0000 0.0000 0.0000 24.5284 16.3386 -2.9007 -1.8851 -8.6226 24.6218 -0.7176 -5.4492 -18.8973 -0.7471 -5.5213 15.4015 -6.7364 0.6188 12.4081 1.1967 -0.1736 -3.6702 5.1622 0.4299 -11.0045 -4.2480 -7.0280 -8.5021 5.0311 -9.9579 17.9155 1.4179 -4.6358 7.3620 0.0000 0.0000 0.0000 -89.0532 5.6398 18.5797 15.0147 -24.1666 -3.2320 -0.0000 0.0000 -1.3550 4.8002 18.2560 1.5069 -7.1250 0.0000 -0.0000 -22.0486 47.0216 -1.1543 0.0000 0.0000 0.0000 85.4906 -6.6146 23.3886 -13.2837 21.7015 -2.5572 0.0000 0.0000 8.5262 -7.8018 17.1981 -2.3199 7.1250 -0.0000 -0.0000 13.2664 -12.9629 10.2368
-1.3987 16.4315 -25.2860 1.5518 2.6782 1.9187 0.0000 0.0000 0.0000 -17.0631 -4.9696 -26.7818 13.0282 18.7923 69.2130 0.0197 0.7185 -3.0193 0.3657 3.8845 10.7521 0.0000 0.0000 0.0000 24.4147 17.3892 -3.6826 -1.9040 -8.6631 24.7471 -0.6796 -4.6231 -17.9333 -0.6534 -5.1706 14.3958 -6.7806 1.2710 11.6346 1.2357 0.7507 -3.8651 5.0276 0.8774 -10.8998 -4.3690 -7.0115 -8.5866 5.0902 -9.9276 17.9674 1.4552 -4.6213 7.4018 -0.0000 -0.0000 0.0000 -89.0766 5.7736 18.6564 15.1901 -24.4103 -3.3041 -0.0000 0.0000 -1.5869 4.9173 17.8278 1.5088 -7.1250 0.0000 -0.0000 -21.7626 46.6397 -0.9235 -0.0000 -0.0000 0.0000 85.3444 -6.4047 23.6990 -13.3690 21.8255 -2.5889 0.0000 0.0000 8.3123 -8.0141 17.6662 -2.4465 7.1250 -0.0000 -0.0000 13.1171 -12.4894 10.2485
-1.4044 16.4079 -25.2143 1.6823 4.4456 1.3483 0.0000 0.0000 0.0000 -17.1860 -6.9482 -26.8659 12.8856 18.7405 68.7700 0.0502 0.0196 -4.2399 0.2071 2.9299 8.0838 0.0000 0.0000 0.0000 24.7632 16.5200 -2.5700 -1.8891 -8.6311 24.6480 -0.7716 -5.2879 -19.3389 -0.6358 -5.1018 14.1990 -6.7720 0.7902 12.7151 1.2741 0.0300 -3.8831 5.2301 0.5572 -11.4599 -4.5663 -6.9515 -8.3241 5.1419 -9.8274 17.8914 1.5237 -4.5887 7.3381 -0.0000 0.0000 0.0000 -89.2486 6.1467 18.5353 15.2572 -24.5032 -3.3319 -0.0000 0.0000 -1.7498 4.9426 17.5059 1.4901 -7.1250 0.0000 -0.0000 -21.6064 46.3437 -0.7512 -0.0000 0.0000 0.0000 85.0726 -6.5202 24.0668 -13.4395 21.9278 -2.6151 0.0000 0.0000 8.0896 -8.3832 17.9599 -2.6018 7.1250 -0.0000 -0.0000 12.8714 -12.1742 10.1328
-1.4490 16.3898 -25.1973 1.4083 4.8725 1.8449 0.0000 0.0000 0.0000 -16.4399 -7.8240 -28.8127 12.7538 18.6914 68.3590 0.0678 -0.4906 -4.7671 0.0737 1.7515 4.8194 0.0000 0.0000 0.0000 25.1910 16.6867 -2.8729 -1.8701 -8.5902 24.5215 -0.7728 -5.6780 -19.6183 -0.6361 -5.1029 14.2022 -7.0620 0.8103 13.4786 1.4810 -0.0397 -4.2736 5.6591 0.6056 -12.3625 -4.5520 -6.9645 -8.4805 5.0197 -9.8225 17.9647 1.4762 -4.5912 7.3824 -0.0000 0.0000 0.0000 -89.3247 6.0780 18.4140 15.2351 -24.4726 -3.3227 -0.0000 0.0000 -1.5824 4.6066 17.8881 1.4177 -7.1250 0.0000 -0.0000 -22.0648 46.6557 -0.9467 -0.0000 0.0000 0.0000 84.9722 -6.4234 24.0694 -13.5043 22.0217 -2.6394 0.0000 0.0000 8.1137 -8.1229 17.8932 -2.5109 7.1250 -0.0000 -0.0000 13.0417 -12.2590 10.2506
-1.4146 16.4166 -25.0735 1.4172 3.3592 2.1233 0.0000 0.0000 0.0000 -16.6719 -7.1615 -29.4406 12.3837 18.5482 67.2000 0.1119 -0.5052 -6.1579 0.0733 1.7465 4.8057 0.0000 0.0000 0.0000 24.9527 16.8981 -2.6903 -1.8437 -8.5327 24.3443 -0.7676 -4.7918 -18.9700 -0.6137 -5.0137 13.9477 -6.8273 1.2663 12.5635 1.3875 0.6733 -4.3066 5.2441 0.9036 -11.9518 -4.6658 -6.9865 -8.4120 5.0177 -9.8490 18.1617 1.4910 -4.6099 7.4418 0.0000 -0.0000 0.0000 -89.3155 6.2412 18.7199 15.3502 -24.6317 -3.3706 -0.0000 0.0000 -1.8252 4.6784 18.6142 1.4963 -7.1250 0.0000 -0.0000 -22.3130 47.3370 -1.3513 0.0000 -0.0000 0.0000 84.8568 -6.5966 24.3954 -13.7959 22.4422 -2.7497 0.0000 0.0000 7.6809 -7.8894 17.7674 -2.4214 7.1250 -0.0000 -0.0000 13.1959 -12.3991 10.3392
-1.4053 16.4093 -24.9584 1.6915 4.8009 1.7877 0.0000 0.0000 0.0000 -17.0368 -8.9727 -29.2124 12.0310 18.4037 66.0869 0.1491 -0.7248 -7.0705 0.1274 2.3012 6.3389 0.0000 0.0000 0.0000 25.0694 16.1669 -1.6846 -1.8383 -8.5208 24.3076 -0.8737 -5.2491 -20.3142 -0.6685 -5.2287 14.5621 -6.7310 0.7766 12.6448 1.2909 0.0154 -4.2580 5.2320 0.5740 -11.8431 -4.8512 -7.0303 -7.7777 5.1158 -9.9111 17.9543 1.5716 -4.6601 7.2797 0.0000 0.0000 0.0000 -89.3130 6.5504 18.7924 15.3447 -24.6241 -3.3682 -0.0000 0.0000 -2.0823 4.9791 18.6165 1.5931 -7.1250 0.0000 -0.0000 -22.0442 47.3793 -1.3574 0.0000 0.0000 0.0000 84.7396 -6.7576 24.8502 -14.0281 22.7749 -2.8390 0.0000 0.0000 7.1620 -7.8355 17.6488 -2.3891 7.1250 -0.0000 -0.0000 13.2336 -12.5191 10.3363
